<svg xmlns="http://www.w3.org/2000/svg" version="1.1" viewBox="-5.0 -10.0 110.0 135.0">
 <path d="m8.6914 12.633c3.2891-3.9023 8.0391-6.4102 12.836-7.9492 3.0273-0.97266 6.0703 0.65625 7.4805 3.3906l6.4531 12.504c3.4844 6.7539-2.4688 8.1445-6.6289 14.344-0.92188 1.375-2.0781 3.4922-1.1133 5.1289 8.3398 14.164 18.066 23.891 32.23 32.23 2.9414 1.7305 7.9375-3.2812 9.8164-5.168 3.2695-3.2891 5.2773-4.8359 9.6602-2.5742l12.504 6.4531c2.7344 1.4102 4.3633 4.4531 3.3906 7.4805-3.0938 9.6328-9.5078 17.258-20.301 17.125-27.496-0.33594-70.281-43.121-70.617-70.613-0.054688-4.5938 1.3164-8.8242 4.2891-12.352zm44.062-2.4727c20.484 0 37.086 16.602 37.086 37.086 0 3.793 5.7617 3.793 5.7617 0 0-23.664-19.184-42.848-42.848-42.848-3.793 0-3.793 5.7617 0 5.7617zm0 27.977c5.0312 0 9.1094 4.0781 9.1094 9.1094 0 3.793 5.7617 3.793 5.7617 0 0-8.2109-6.6562-14.871-14.871-14.871-3.793 0-3.793 5.7617 0 5.7617zm0-13.988c12.758 0 23.098 10.34 23.098 23.098 0 3.793 5.7617 3.793 5.7617 0 0-15.938-12.922-28.859-28.859-28.859-3.793 0-3.793 5.7617 0 5.7617z" fill-rule="evenodd"/>
<text x="0.0" y="117.5" font-size="5.0" font-weight="bold" font-family="Arbeit Regular, Helvetica, Arial-Unicode, Arial, Sans-serif" fill="#000000">Created by Dwi Budiyanto</text><text x="0.0" y="122.5" font-size="5.0" font-weight="bold" font-family="Arbeit Regular, Helvetica, Arial-Unicode, Arial, Sans-serif" fill="#000000">from Noun Project</text></svg>